<svg xmlns="http://www.w3.org/2000/svg" xmlns:xlink="http://www.w3.org/1999/xlink" xml:space="preserve" width="800" height="600" viewBox="0 0 211.667 158.751"><defs><linearGradient id="a" x1="129" x2="129" y1="11" y2="245" gradientUnits="userSpaceOnUse"><stop offset="0" style="stop-color:#494949"/><stop offset="1" style="stop-color:#000"/></linearGradient><linearGradient id="l" x1="94.524" x2="157.156" y1="116.933" y2="179.565" gradientTransform="translate(-317.124 488.095)scale(.49587)" gradientUnits="userSpaceOnUse"><stop offset="0" style="stop-color:#093"/><stop offset=".455" style="stop-color:#006a00"/><stop offset="1" style="stop-color:#033"/></linearGradient><linearGradient id="b"><stop offset="0" style="stop-color:#000;stop-opacity:1"/><stop offset="1" style="stop-color:#000;stop-opacity:0"/></linearGradient><linearGradient id="g"><stop offset="0" style="stop-color:#fff;stop-opacity:1"/><stop offset="1" style="stop-color:#fff;stop-opacity:0"/></linearGradient><linearGradient id="i"><stop offset="0" style="stop-color:#eeeeec;stop-opacity:1"/><stop offset="1" style="stop-color:#eeeeec;stop-opacity:0"/></linearGradient><linearGradient id="h"><stop offset="0" style="stop-color:#888a85;stop-opacity:1"/><stop offset="1" style="stop-color:#d3d7cf;stop-opacity:1"/></linearGradient><linearGradient id="c"><stop offset="0" style="stop-color:#d3d7cf;stop-opacity:1"/><stop offset="1" style="stop-color:#888a85;stop-opacity:1"/></linearGradient><linearGradient id="j" x1="139.866" x2="202.497" y1="75.714" y2="138.345" gradientTransform="translate(-317.124 481.745)scale(.49587)" gradientUnits="userSpaceOnUse"><stop offset="0" style="stop-color:#e14e30"/><stop offset=".472" style="stop-color:#ff5b00"/><stop offset="1" style="stop-color:#c51700"/></linearGradient><linearGradient id="k" x1="50.099" x2="112.73" y1="75.943" y2="138.574" gradientTransform="translate(-317.124 481.745)scale(.49587)" gradientUnits="userSpaceOnUse"><stop offset="0" style="stop-color:#900"/><stop offset=".455" style="stop-color:#7c0000"/><stop offset="1" style="stop-color:#600000"/></linearGradient><linearGradient xlink:href="#path266_6_" id="F" x1="385.976" x2="498.108" y1="1061.968" y2="1056.065" gradientTransform="translate(-249.29 143.588)scale(.34432)" gradientUnits="userSpaceOnUse"/><linearGradient xlink:href="#path266_7_" id="H" x1="152.205" x2="264.341" y1="1062.563" y2="1056.66" gradientTransform="translate(-249.29 143.588)scale(.34432)" gradientUnits="userSpaceOnUse"/><linearGradient xlink:href="#path266_8_" id="J" x1="267.897" x2="380.034" y1="1169.309" y2="1163.406" gradientTransform="translate(-249.29 142.264)scale(.34432)" gradientUnits="userSpaceOnUse"/><linearGradient xlink:href="#a" id="t" x1="129" x2="129" y1="11" y2="245" gradientTransform="translate(-110.52 130.54)scale(.23151)" gradientUnits="userSpaceOnUse"/><linearGradient xlink:href="#b" id="u" x1="20.781" x2="20.813" y1="24.594" y2="23.531" gradientUnits="userSpaceOnUse"/><linearGradient xlink:href="#c" id="m" x1="14.496" x2="26.737" y1="29.88" y2="42.564" gradientTransform="translate(-42.785 539.067)scale(.89667)" gradientUnits="userSpaceOnUse"/><linearGradient xlink:href="#g" id="n" x1="14.375" x2="30.438" y1="31.063" y2="44.063" gradientTransform="translate(-79.627 502.358)scale(.89667)" gradientUnits="userSpaceOnUse"/><linearGradient xlink:href="#h" id="p" x1="16.794" x2="22.053" y1="30.676" y2="37.128" gradientTransform="translate(-42.785 539.067)scale(.89667)" gradientUnits="userSpaceOnUse"/><linearGradient xlink:href="#i" id="q" x1="20.807" x2="17.449" y1="36.825" y2="30.901" gradientTransform="translate(-83.973 528.952)scale(.89667)" gradientUnits="userSpaceOnUse"/><linearGradient xlink:href="#i" id="r" x1="17.66" x2="23.032" y1="36.68" y2="31.111" gradientTransform="translate(-49.575 -311.653)scale(.89667)" gradientUnits="userSpaceOnUse"/><linearGradient xlink:href="#j" id="E" x1="139.866" x2="202.497" y1="75.714" y2="138.345" gradientTransform="translate(-411.952 501.414)scale(.44463)" gradientUnits="userSpaceOnUse"/><linearGradient xlink:href="#k" id="G" x1="50.099" x2="112.73" y1="75.943" y2="138.574" gradientTransform="translate(-411.952 501.414)scale(.44463)" gradientUnits="userSpaceOnUse"/><linearGradient xlink:href="#l" id="I" x1="94.524" x2="157.156" y1="116.933" y2="179.565" gradientTransform="translate(-411.952 507.108)scale(.44463)" gradientUnits="userSpaceOnUse"/><linearGradient xlink:href="#c" id="K" x1="14.496" x2="26.737" y1="29.88" y2="42.564" gradientTransform="translate(-42.785 539.067)scale(.89667)" gradientUnits="userSpaceOnUse"/><linearGradient xlink:href="#g" id="L" x1="14.375" x2="30.438" y1="31.063" y2="44.063" gradientTransform="translate(-79.627 502.358)scale(.89667)" gradientUnits="userSpaceOnUse"/><linearGradient xlink:href="#h" id="N" x1="16.794" x2="22.053" y1="30.676" y2="37.128" gradientTransform="translate(-42.785 539.067)scale(.89667)" gradientUnits="userSpaceOnUse"/><linearGradient xlink:href="#i" id="O" x1="20.807" x2="17.449" y1="36.825" y2="30.901" gradientTransform="translate(-83.973 528.952)scale(.89667)" gradientUnits="userSpaceOnUse"/><linearGradient xlink:href="#i" id="P" x1="17.66" x2="23.032" y1="36.68" y2="31.111" gradientTransform="translate(-49.575 -311.653)scale(.89667)" gradientUnits="userSpaceOnUse"/><linearGradient xlink:href="#a" id="R" x1="129" x2="129" y1="11" y2="245" gradientTransform="translate(-110.52 130.54)scale(.23151)" gradientUnits="userSpaceOnUse"/><linearGradient xlink:href="#b" id="S" x1="20.781" x2="20.813" y1="24.594" y2="23.531" gradientUnits="userSpaceOnUse"/><linearGradient xlink:href="#f-9" id="U" x1="385.976" x2="498.108" y1="1061.968" y2="1056.065" gradientTransform="translate(-249.29 143.588)scale(.34432)" gradientUnits="userSpaceOnUse"/><linearGradient xlink:href="#h-2" id="W" x1="152.205" x2="264.341" y1="1062.563" y2="1056.66" gradientTransform="translate(-249.29 143.588)scale(.34432)" gradientUnits="userSpaceOnUse"/><linearGradient xlink:href="#k-0" id="Y" x1="267.897" x2="380.034" y1="1169.309" y2="1163.406" gradientTransform="translate(-249.29 142.264)scale(.34432)" gradientUnits="userSpaceOnUse"/><linearGradient xlink:href="#j" id="T" x1="139.866" x2="202.497" y1="75.714" y2="138.345" gradientTransform="translate(-411.952 501.414)scale(.44463)" gradientUnits="userSpaceOnUse"/><linearGradient xlink:href="#k" id="V" x1="50.099" x2="112.73" y1="75.943" y2="138.574" gradientTransform="translate(-411.952 501.414)scale(.44463)" gradientUnits="userSpaceOnUse"/><linearGradient xlink:href="#l" id="X" x1="94.524" x2="157.156" y1="116.933" y2="179.565" gradientTransform="translate(-411.952 507.108)scale(.44463)" gradientUnits="userSpaceOnUse"/><linearGradient xlink:href="#a" id="aa" x1="129" x2="129" y1="11" y2="245" gradientTransform="translate(-110.52 130.54)scale(.23151)" gradientUnits="userSpaceOnUse"/><linearGradient xlink:href="#b" id="ab" x1="20.781" x2="20.813" y1="24.594" y2="23.531" gradientUnits="userSpaceOnUse"/><linearGradient xlink:href="#a" id="ac" x1="129" x2="129" y1="11" y2="245" gradientTransform="translate(-56.332 -222.367)scale(.1366)" gradientUnits="userSpaceOnUse"/><linearGradient xlink:href="#a" id="ad" x1="129" x2="129" y1="11" y2="245" gradientTransform="translate(-53.11 -219.23)scale(.1366)" gradientUnits="userSpaceOnUse"/><linearGradient xlink:href="#a" id="ae" x1="129" x2="129" y1="11" y2="245" gradientTransform="translate(-49.92 -215.413)scale(.1366)" gradientUnits="userSpaceOnUse"/><linearGradient xlink:href="#a" id="ag" x1="129" x2="129" y1="11" y2="245" gradientTransform="translate(-110.52 130.54)scale(.23151)" gradientUnits="userSpaceOnUse"/><linearGradient xlink:href="#b" id="ah" x1="20.781" x2="20.813" y1="24.594" y2="23.531" gradientUnits="userSpaceOnUse"/><marker id="s" orient="auto" refX="0" refY="0" style="overflow:visible"><path d="M8.719 4.034-2.207.016 8.719-4.002c-1.746 2.372-1.736 5.618 0 8.036z" style="fill:maroon;fill-opacity:1;fill-rule:evenodd;stroke:maroon;stroke-width:.625;stroke-linejoin:round;stroke-opacity:1" transform="matrix(-.3 0 0 -.3 .69 0)"/></marker><marker id="Q" markerHeight="3.418" markerWidth="4.7" orient="auto-start-reverse" preserveAspectRatio="xMidYMid" refX="0" refY="0" style="overflow:visible" viewBox="0 0 7.7 5.6"><path d="M-2-4 9 0-2 4c2-2.33 2-5.66 0-8z" style="fill:context-stroke;fill-rule:evenodd;stroke:none" transform="scale(.7)"/></marker><marker id="Z" markerHeight="2.598" markerWidth="3.465" orient="auto" preserveAspectRatio="xMidYMid" refX="0" refY="0" style="overflow:visible" viewBox="0 0 3.465 2.598"><path d="M8.719 4.034-2.207.016 8.719-4.002c-1.746 2.372-1.736 5.618 0 8.036z" style="fill:#784421;fill-opacity:1;fill-rule:evenodd;stroke:#784421;stroke-width:.625;stroke-linejoin:round;stroke-opacity:1" transform="matrix(-.3 0 0 -.3 .69 0)"/></marker><radialGradient xlink:href="#b" id="o" cx="42.5" cy="34.5" r="8.688" fx="42.5" fy="34.5" gradientTransform="matrix(.89667 0 0 .89345 -63.407 539.178)" gradientUnits="userSpaceOnUse"/><radialGradient xlink:href="#b" id="M" cx="42.5" cy="34.5" r="8.688" fx="42.5" fy="34.5" gradientTransform="matrix(.89667 0 0 .89345 -63.407 539.178)" gradientUnits="userSpaceOnUse"/><filter id="af" width="1.019" height="1.121" x="-.01" y="-.06" style="color-interpolation-filters:sRGB"><feGaussianBlur stdDeviation=".072"/></filter></defs><text xml:space="preserve" x="78.087" y="68.555" style="font-style:normal;font-variant:normal;font-weight:400;font-stretch:normal;font-size:3.93418px;line-height:100%;font-family:&quot;Arial Black&quot;;-inkscape-font-specification:&quot;Arial Black, Normal&quot;;font-variant-ligatures:normal;font-variant-caps:normal;font-variant-numeric:normal;font-variant-east-asian:normal;text-align:start;letter-spacing:0;word-spacing:0;writing-mode:lr-tb;text-anchor:start;fill:maroon;fill-opacity:1;stroke:none;stroke-width:.295072px;stroke-linecap:butt;stroke-linejoin:miter;stroke-opacity:1" transform="rotate(-.8)"><tspan x="78.087" y="68.555">http request</tspan></text><g style="stroke-width:3.02775" transform="matrix(.36833 -.00138 .00138 .36833 114.79 114.838)"><rect width="79.375" height="26.458" x="103.565" y="86.845" ry="8.118" style="opacity:1;fill:#ff8c00;fill-opacity:.895928;fill-rule:nonzero;stroke:none;stroke-width:.764678;stroke-linecap:round;stroke-linejoin:round;stroke-miterlimit:4;stroke-dasharray:none;stroke-dashoffset:0;stroke-opacity:1;paint-order:markers fill stroke"/><g style="stroke-width:3.02775" transform="translate(72.549 43.834)scale(.78573)"><path d="M56 62.21a9.08 9.08 0 0 0-1.438.187h-.03a9.056 9.056 0 0 0-2.407.875l.656 3.125a6.043 6.043 0 0 0-1.281 1.25l-3.094-.625c-.256.484-.49.968-.656 1.5a9.126 9.126 0 0 0-.406 2.344l3.062 1.03c.07.593.202 1.182.438 1.72l-2.125 2.375c.277.441.59.864.937 1.25l.625.593c.388.356.804.685 1.25.97l2.375-2.126c.286.127.564.23.875.313.295.079.612.154.906.187l1 3.031a9.08 9.08 0 0 0 1.438-.187h.031a9.056 9.056 0 0 0 2.406-.875l-.656-3.125a6.043 6.043 0 0 0 1.281-1.25l3.094.625c.257-.484.491-.968.656-1.5a9.13 9.13 0 0 0 .407-2.344l-3.063-1.031c-.07-.593-.202-1.18-.437-1.719l2.125-2.375a9.095 9.095 0 0 0-.938-1.25l-.625-.594a9.063 9.063 0 0 0-1.25-.968l-2.375 2.125a5.764 5.764 0 0 0-.875-.313 6.403 6.403 0 0 0-.906-.187Zm.125 7c.114-.013.228-.008.344 0 .132.007.273.026.406.062 1.066.286 1.692 1.402 1.406 2.469-.285 1.066-1.402 1.692-2.469 1.406-1.066-.286-1.691-1.402-1.406-2.469a2.011 2.011 0 0 1 1.719-1.469z" style="fill:url(#m);fill-opacity:1;stroke:#2e3436;stroke-width:3.02775;stroke-linecap:round;stroke-linejoin:miter;stroke-miterlimit:4;stroke-dasharray:none;stroke-opacity:1"/><path d="m18.46 26.486-2.075.557.845 4.041a.969.969 0 0 1-1.146 1.146l-4.072-.845-.559 2.076 3.945 1.307a.969.969 0 0 1 .418 1.564l-2.738 3.07 1.494 1.512 3.096-2.762a.969.969 0 0 1 1.564.418l1.307 3.946 2.076-.559-.845-4.041a.969.969 0 0 1 1.146-1.146l4.072.845.559-2.076-3.945-1.307a.969.969 0 0 1-.418-1.564l2.738-3.07-1.494-1.512-3.096 2.762a.969.969 0 0 1-1.564-.418Z" style="fill:none;stroke:url(#n);stroke-width:3.02775;stroke-linecap:round;stroke-linejoin:miter;stroke-miterlimit:4;stroke-dasharray:none;stroke-opacity:1" transform="translate(36.844 36.71)"/><path d="m55.625 62.553-3 .875.937 4.469a.449.449 0 0 1-.125.406.449.449 0 0 1-.406.125l-4.5-.937-.875 3 4.438 1.468c.149.052.241.192.281.344a.417.417 0 0 1-.094.406l-3.031 3.438 2.125 2.156 3.469-3.062a.417.417 0 0 1 .406-.094c.153.04.292.132.344.281l1.468 4.438 3-.875-.937-4.47a.449.449 0 0 1 .125-.405.449.449 0 0 1 .406-.125l4.5.937.875-3-4.437-1.469c-.15-.051-.242-.19-.282-.343a.417.417 0 0 1 .094-.407l3.031-3.437-2.125-2.156-3.468 3.062a.417.417 0 0 1-.407.094c-.152-.04-.292-.132-.343-.281zm.719 5.656a3.001 3.001 0 0 1 0 6 3.001 3.001 0 0 1 0-6z" style="opacity:.937255;fill:url(#o);fill-opacity:1;stroke:none;stroke-width:3.02775"/><path d="M56.344 65.71a5.502 5.502 0 0 0-5.5 5.5c0 3.035 2.464 5.5 5.5 5.5s5.5-2.465 5.5-5.5c0-3.037-2.464-5.5-5.5-5.5zm0 3a2.5 2.5 0 0 1 0 5 2.5 2.5 0 0 1 0-5z" style="fill:url(#p);fill-opacity:1;stroke:none;stroke-width:3.02775"/><circle cx="19.556" cy="34.587" r="3.16" style="fill:none;stroke:url(#q);stroke-width:3.18911;stroke-linecap:round;stroke-linejoin:miter;stroke-miterlimit:4;stroke-dasharray:none;stroke-opacity:1" transform="translate(37.777 38.372)scale(.9494)"/><circle cx="19.556" cy="34.587" r="3.16" style="fill:none;stroke:url(#r);stroke-width:1.91347;stroke-linecap:round;stroke-linejoin:miter;stroke-miterlimit:4;stroke-dasharray:none;stroke-opacity:1" transform="matrix(1.58233 0 0 -1.58234 25.4 125.938)"/></g><text xml:space="preserve" x="146.623" y="98.82" style="font-style:normal;font-variant:normal;font-weight:400;font-stretch:normal;font-size:8.61982px;line-height:100%;font-family:&quot;Arial Black&quot;;-inkscape-font-specification:&quot;Arial Black, Normal&quot;;font-variant-ligatures:normal;font-variant-caps:normal;font-variant-numeric:normal;font-variant-east-asian:normal;text-align:center;letter-spacing:0;word-spacing:0;writing-mode:lr-tb;text-anchor:middle;fill:#000;fill-opacity:1;stroke:none;stroke-width:.328231px;stroke-linecap:butt;stroke-linejoin:miter;stroke-opacity:1"><tspan>JSON</tspan><tspan>client</tspan></text></g><path d="m50.2 76.818 82.412.182" style="fill:maroon;fill-opacity:1;fill-rule:evenodd;stroke:maroon;stroke-width:.940574;stroke-linecap:butt;stroke-linejoin:miter;stroke-miterlimit:4;stroke-dasharray:none;stroke-opacity:1;marker-end:url(#s)"/><g style="stroke-width:3.02775"><g style="stroke-width:3.02775"><path d="M-100.334 134.128a3.94 3.94 0 0 0-3.935 3.935v46.302a3.94 3.94 0 0 0 3.935 3.936h40.746a3.94 3.94 0 0 0 3.936-3.936v-46.302a3.94 3.94 0 0 0-3.936-3.935z" style="opacity:.2;stroke-width:.700955" transform="translate(118.333 36.885)scale(.33028)"/><path d="M-100.797 133.665a3.94 3.94 0 0 0-3.935 3.935v46.302a3.94 3.94 0 0 0 3.935 3.936h40.746a3.94 3.94 0 0 0 3.936-3.936V137.6a3.94 3.94 0 0 0-3.936-3.935z" style="opacity:.2;stroke-width:.700955" transform="translate(118.333 36.885)scale(.33028)"/><path d="M-101.26 133.433a3.94 3.94 0 0 0-3.935 3.936v46.302a3.94 3.94 0 0 0 3.935 3.936h40.746a3.94 3.94 0 0 0 3.936-3.936v-46.302a3.94 3.94 0 0 0-3.936-3.936z" style="opacity:.2;stroke-width:.700955" transform="translate(118.333 36.885)scale(.33028)"/><path d="M-101.028 133.086a3.94 3.94 0 0 0-3.936 3.936v46.302a3.94 3.94 0 0 0 3.936 3.935h40.746a3.94 3.94 0 0 0 3.935-3.935v-46.302a3.94 3.94 0 0 0-3.935-3.936z" style="fill:url(#t);stroke-width:.700955" transform="translate(118.333 36.885)scale(.33028)"/><path d="M-104.038 183.324a2.778 2.778 0 0 0 2.778 2.778h40.746a2.778 2.778 0 0 0 2.778-2.778v-46.302a2.778 2.778 0 0 0-2.778-2.779h-40.746a2.778 2.778 0 0 0-2.778 2.779z" style="fill:#fff;stroke-width:.700955" transform="translate(118.333 36.885)scale(.33028)"/><path d="M-110.52 130.539h59.267v59.267h-59.267z" style="fill:none;stroke-width:.700955" transform="translate(118.333 36.885)scale(.33028)"/><path d="M11.781 19.5c-.179 0-.27.018-.304.027-.034.01-.014-.001-.043.022-.006.004-.109.1-.211.396L9.803 24.5H37.12l-1.43-4.344c-.191-.476-.262-.517-.314-.552-.07-.048-.143-.104-.565-.104Z" style="color:#000;display:block;overflow:visible;visibility:visible;opacity:.15;fill:none;stroke:url(#u);stroke-width:3.02775;stroke-linecap:butt;stroke-linejoin:miter;stroke-miterlimit:4;stroke-dashoffset:0;stroke-opacity:1;marker:none" transform="translate(81.83 80.077)scale(.07646)"/><path d="M-104.038 183.324a2.778 2.778 0 0 0 2.778 2.778h40.746a2.778 2.778 0 0 0 2.778-2.778v-46.302a2.778 2.778 0 0 0-2.778-2.779h-40.746a2.778 2.778 0 0 0-2.778 2.779z" style="fill:#fff;stroke-width:.700955" transform="translate(118.333 36.885)scale(.33028)"/></g><g style="stroke-width:3.02775" transform="translate(105.654 9.03)scale(.33028)"><rect width="38.046" height="22.207" x="-61.419" y="-267.66" rx="3.593" ry="4.043" style="fill:purple;fill-opacity:1;stroke:none;stroke-width:.377279" transform="scale(1 -1)"/><text xml:space="preserve" x="-55.084" y="261.839" style="font-style:normal;font-variant:normal;font-weight:400;font-stretch:condensed;font-size:13.8677px;line-height:100%;font-family:Impact;-inkscape-font-specification:&quot;Impact, Condensed&quot;;font-variant-ligatures:normal;font-variant-caps:normal;font-variant-numeric:normal;font-variant-east-asian:normal;text-align:start;letter-spacing:0;word-spacing:0;writing-mode:lr-tb;text-anchor:start;fill:#fff;fill-opacity:1;stroke:none;stroke-width:.53509px;stroke-linecap:butt;stroke-linejoin:miter;stroke-opacity:1"><tspan x="-55.084" y="261.839">JSON</tspan></text></g></g><text xml:space="preserve" x="154.833" y="12.017" style="font-style:normal;font-variant:normal;font-weight:400;font-stretch:normal;font-size:11.2889px;line-height:100%;font-family:&quot;Arial Black&quot;;-inkscape-font-specification:&quot;Arial Black, Normal&quot;;font-variant-ligatures:normal;font-variant-caps:normal;font-variant-numeric:normal;font-variant-east-asian:normal;text-align:center;letter-spacing:0;word-spacing:0;writing-mode:lr-tb;text-anchor:middle;fill:#a9a9a9;fill-opacity:1;stroke:none;stroke-width:.295072px;stroke-linecap:butt;stroke-linejoin:miter;stroke-opacity:1"><tspan x="154.833" y="12.017">JSON API</tspan><tspan x="154.833" y="23.305">SERVER / CLIENT</tspan></text><g style="stroke-width:3.02775"><path d="m-206.673 318.47-19.165 13.325c-.55.382-.897.996-.897 1.665v18.24c0 .675.333 1.307.89 1.688l19.186 13.096c.7.479 1.623.474 2.32-.01l19.184-13.344c.55-.382.878-1.009.878-1.678v-18.239c0-.676-.335-1.308-.894-1.69l-19.184-13.063a2.044 2.044 0 0 0-2.318.01zm-44.512.113-19.166 13.326c-.549.382-.897.995-.897 1.664v18.24c0 .674.334 1.307.892 1.687l19.185 13.097c.7.478 1.623.474 2.32-.01l19.185-13.345a2.045 2.045 0 0 0 .876-1.678v-18.238c0-.676-.334-1.309-.893-1.69l-19.185-13.064a2.044 2.044 0 0 0-2.317.011z" style="opacity:.2;stroke-width:.200273" transform="matrix(.3683 -.0058 .0058 .3683 273.845 -26.72)"/><path d="m-207.695 318.13-19.165 13.324c-.55.383-.897.996-.897 1.666v18.238c0 .675.333 1.308.891 1.687l19.186 13.098c.7.478 1.623.474 2.32-.01l19.184-13.345a2.045 2.045 0 0 0 .877-1.678v-18.238c0-.677-.335-1.309-.893-1.69l-19.186-13.064a2.043 2.043 0 0 0-2.317.011zm-44.512.112-19.166 13.326c-.55.382-.897.995-.897 1.664v18.238c0 .676.334 1.308.891 1.688l19.185 13.097c.7.479 1.624.474 2.32-.01l19.185-13.344c.55-.382.877-1.009.877-1.678v-18.238c0-.676-.335-1.308-.894-1.69l-19.184-13.064a2.044 2.044 0 0 0-2.317.011z" style="opacity:.2;stroke-width:.200273" transform="matrix(.3683 -.0058 .0058 .3683 273.845 -26.72)"/><path d="m-208.376 318.13-19.166 13.324c-.548.383-.896.996-.896 1.666v18.238c0 .675.334 1.308.891 1.687l19.185 13.098c.7.478 1.624.474 2.32-.01l19.185-13.345a2.045 2.045 0 0 0 .877-1.678v-18.238c0-.677-.334-1.309-.894-1.69l-19.185-13.064a2.044 2.044 0 0 0-2.317.011z" style="fill:#fff;stroke-width:.200273" transform="matrix(.3683 -.0058 .0058 .3683 273.845 -26.72)"/><path d="m-208.376 318.13-19.166 13.324c-.548.383-.896.996-.896 1.666v18.238c0 .675.334 1.308.891 1.687l19.185 13.098c.7.478 1.624.474 2.32-.01l19.185-13.345a2.045 2.045 0 0 0 .877-1.678v-18.238c0-.677-.334-1.309-.894-1.69l-19.185-13.064a2.044 2.044 0 0 0-2.317.011z" style="fill:url(#E);stroke-width:.200273" transform="matrix(.3683 -.0058 .0058 .3683 273.845 -26.72)"/><g style="stroke-width:.403886"><path d="m171.166 115.285-38.689-26.358 38.689-26.9 38.689 26.347z" style="fill:#fff;stroke-width:.403886" transform="scale(.18264)rotate(-.9 28830.261 -58292)"/></g><g style="stroke-width:.403886"><path d="m171.166 115.285-38.689-26.358 38.689-26.9 38.689 26.347z" style="fill:url(#F);stroke-width:.403886" transform="scale(.18264)rotate(-.9 28830.261 -58292)"/></g><g style="stroke-width:.403886"><path d="m171.166 152.065 38.689-26.91V88.374l-38.689 26.911z" style="fill:#ff6d00;stroke-width:.403886" transform="scale(.18264)rotate(-.9 28830.261 -58292)"/></g><g style="stroke-width:.403886"><path d="m171.166 152.065-38.689-26.411V88.873l38.695 26.412z" style="fill:#ffa700;stroke-width:.403886" transform="scale(.18264)rotate(-.9 28830.261 -58292)"/></g><path d="m-229.156 345.259-19.166 13.325c-.55.383-.896.996-.896 1.665v18.238c0 .675.333 1.308.891 1.688l19.185 13.097c.7.478 1.623.475 2.32-.01l19.184-13.345a2.045 2.045 0 0 0 .878-1.677V360c0-.675-.336-1.308-.894-1.689l-19.185-13.064a2.044 2.044 0 0 0-2.317.01z" style="opacity:.2;stroke-width:.200273" transform="matrix(.3683 -.0058 .0058 .3683 273.845 -26.72)"/><path d="m-252.889 318.242-19.165 13.326c-.55.382-.897.995-.897 1.664v18.238c0 .676.333 1.308.892 1.688l19.185 13.097c.7.479 1.623.474 2.319-.01l19.185-13.344a2.045 2.045 0 0 0 .877-1.678v-18.238c0-.676-.335-1.308-.894-1.69l-19.185-13.064a2.044 2.044 0 0 0-2.317.011z" style="fill:url(#G);stroke-width:.200273" transform="matrix(.3683 -.0058 .0058 .3683 273.845 -26.72)"/><g style="stroke-width:.403886"><path d="M81.399 115.514 42.708 89.156l38.691-26.9 38.69 26.347z" style="fill:#fff;stroke-width:.403886" transform="scale(.18264)rotate(-.9 28830.261 -58292)"/></g><g style="stroke-width:.403886"><path d="M81.399 115.514 42.708 89.156l38.691-26.9 38.69 26.347z" style="fill:url(#H);stroke-width:.403886" transform="scale(.18264)rotate(-.9 28830.261 -58292)"/></g><path d="m-230.178 344.918-19.166 13.325c-.55.382-.897.996-.897 1.665v18.239c0 .674.334 1.307.892 1.687l19.185 13.097c.7.478 1.623.474 2.32-.01l19.184-13.344c.549-.383.877-1.01.877-1.678V359.66c0-.677-.335-1.309-.893-1.69l-19.185-13.063a2.043 2.043 0 0 0-2.317.011z" style="opacity:.2;stroke-width:.200273" transform="matrix(.3683 -.0058 .0058 .3683 273.845 -26.72)"/><g style="stroke-width:.403886"><path d="m81.399 152.295 38.69-26.911V88.603l-38.69 26.911z" style="fill:#cf0000;stroke-width:.403886" transform="scale(.18264)rotate(-.9 28830.261 -58292)"/></g><g style="stroke-width:.403886"><path d="m81.399 152.295-38.691-26.413v-36.78l38.696 26.412z" style="fill:red;stroke-width:.403886" transform="scale(.18264)rotate(-.9 28830.261 -58292)"/></g><path d="m-230.86 344.918-19.165 13.325c-.55.382-.897.996-.897 1.665v18.239c0 .674.334 1.307.891 1.687l19.185 13.097c.7.478 1.623.474 2.32-.01l19.186-13.344c.549-.383.876-1.01.876-1.678V359.66c0-.677-.334-1.309-.894-1.69l-19.185-13.063a2.044 2.044 0 0 0-2.317.011z" style="fill:url(#I);stroke-width:.200273" transform="matrix(.3683 -.0058 .0058 .3683 273.845 -26.72)"/><path d="m125.825 193.286 38.691-26.911v-36.781l-38.691-26.347-38.652 26.873-.039-.027v36.781z" style="fill:#6c3;stroke-width:.403886" transform="scale(.18264)rotate(-.9 29644.946 -58298.49)"/><g style="stroke-width:.403886"><path d="m164.516 129.594-38.691 26.91-38.691-26.358 38.691-26.899z" style="fill:#fff;stroke-width:.403886" transform="scale(.18264)rotate(-.9 29644.946 -58298.49)"/></g><g style="stroke-width:.403886"><path d="m164.516 129.594-38.691 26.91-38.691-26.358 38.691-26.899z" style="fill:url(#J);stroke-width:.403886" transform="scale(.18264)rotate(-.9 29644.946 -58298.49)"/></g><g style="stroke-width:.403886"><path d="M125.825 156.504v36.782l38.691-26.911v-36.781z" style="fill:#093;stroke-width:.403886" transform="scale(.18264)rotate(-.9 29644.946 -58298.49)"/></g><g style="stroke-width:.403886"><path d="m125.831 156.504-.006 36.782-38.691-26.412v-36.781z" style="fill:#6c3;stroke-width:.403886" transform="scale(.18264)rotate(-.9 29644.946 -58298.49)"/></g></g><text xml:space="preserve" x="180.496" y="127.951" style="font-style:normal;font-variant:normal;font-weight:400;font-stretch:normal;font-size:4.23333px;line-height:100%;font-family:&quot;Arial Black&quot;;-inkscape-font-specification:&quot;Arial Black, Normal&quot;;font-variant-ligatures:normal;font-variant-caps:normal;font-variant-numeric:normal;font-feature-settings:normal;text-align:start;letter-spacing:0;word-spacing:0;writing-mode:lr-tb;text-anchor:start;fill:#228b22;fill-opacity:1;stroke:none;stroke-width:.295072px;stroke-linecap:butt;stroke-linejoin:miter;stroke-opacity:1" transform="rotate(-.902)"><tspan x="180.496" y="127.951">synset</tspan></text><text xml:space="preserve" x="181.259" y="132.137" style="font-style:normal;font-variant:normal;font-weight:400;font-stretch:normal;font-size:4.23333px;line-height:100%;font-family:&quot;Arial Black&quot;;-inkscape-font-specification:&quot;Arial Black, Normal&quot;;font-variant-ligatures:normal;font-variant-caps:normal;font-variant-numeric:normal;font-feature-settings:normal;text-align:start;letter-spacing:0;word-spacing:0;writing-mode:lr-tb;text-anchor:start;fill:red;fill-opacity:1;stroke:none;stroke-width:.295072px;stroke-linecap:butt;stroke-linejoin:miter;stroke-opacity:1" transform="rotate(-.902)"><tspan x="181.259" y="132.137">sense</tspan></text><text xml:space="preserve" x="180.172" y="136.608" style="font-style:normal;font-variant:normal;font-weight:400;font-stretch:normal;font-size:4.23333px;line-height:100%;font-family:&quot;Arial Black&quot;;-inkscape-font-specification:&quot;Arial Black, Normal&quot;;font-variant-ligatures:normal;font-variant-caps:normal;font-variant-numeric:normal;font-feature-settings:normal;text-align:start;letter-spacing:0;word-spacing:0;writing-mode:lr-tb;text-anchor:start;fill:#696969;fill-opacity:1;stroke:none;stroke-width:.295072px;stroke-linecap:butt;stroke-linejoin:miter;stroke-opacity:1" transform="rotate(-.902)"><tspan x="180.172" y="136.608">lemma</tspan></text><text xml:space="preserve" x="178.989" y="140.859" style="font-style:normal;font-variant:normal;font-weight:400;font-stretch:normal;font-size:4.23333px;line-height:100%;font-family:&quot;Arial Black&quot;;-inkscape-font-specification:&quot;Arial Black, Normal&quot;;font-variant-ligatures:normal;font-variant-caps:normal;font-variant-numeric:normal;font-feature-settings:normal;text-align:start;letter-spacing:0;word-spacing:0;writing-mode:lr-tb;text-anchor:start;fill:#d2691e;fill-opacity:1;stroke:none;stroke-width:.295072px;stroke-linecap:butt;stroke-linejoin:miter;stroke-opacity:1" transform="rotate(-.902)"><tspan x="178.989" y="140.859">relation</tspan></text><g style="stroke-width:3.02775" transform="matrix(.36833 -.00138 .00138 .36833 -23.393 112.68)"><rect width="79.375" height="26.458" x="103.565" y="86.845" ry="8.118" style="opacity:1;fill:#ff8c00;fill-opacity:.895928;fill-rule:nonzero;stroke:none;stroke-width:.764678;stroke-linecap:round;stroke-linejoin:round;stroke-miterlimit:4;stroke-dasharray:none;stroke-dashoffset:0;stroke-opacity:1;paint-order:markers fill stroke"/><g style="stroke-width:3.02775" transform="translate(72.549 43.834)scale(.78573)"><path d="M56 62.21a9.08 9.08 0 0 0-1.438.187h-.03a9.056 9.056 0 0 0-2.407.875l.656 3.125a6.043 6.043 0 0 0-1.281 1.25l-3.094-.625c-.256.484-.49.968-.656 1.5a9.126 9.126 0 0 0-.406 2.344l3.062 1.03c.07.593.202 1.182.438 1.72l-2.125 2.375c.277.441.59.864.937 1.25l.625.593c.388.356.804.685 1.25.97l2.375-2.126c.286.127.564.23.875.313.295.079.612.154.906.187l1 3.031a9.08 9.08 0 0 0 1.438-.187h.031a9.056 9.056 0 0 0 2.406-.875l-.656-3.125a6.043 6.043 0 0 0 1.281-1.25l3.094.625c.257-.484.491-.968.656-1.5a9.13 9.13 0 0 0 .407-2.344l-3.063-1.031c-.07-.593-.202-1.18-.437-1.719l2.125-2.375a9.095 9.095 0 0 0-.938-1.25l-.625-.594a9.063 9.063 0 0 0-1.25-.968l-2.375 2.125a5.764 5.764 0 0 0-.875-.313 6.403 6.403 0 0 0-.906-.187Zm.125 7c.114-.013.228-.008.344 0 .132.007.273.026.406.062 1.066.286 1.692 1.402 1.406 2.469-.285 1.066-1.402 1.692-2.469 1.406-1.066-.286-1.691-1.402-1.406-2.469a2.011 2.011 0 0 1 1.719-1.469z" style="fill:url(#K);fill-opacity:1;stroke:#2e3436;stroke-width:3.02775;stroke-linecap:round;stroke-linejoin:miter;stroke-miterlimit:4;stroke-dasharray:none;stroke-opacity:1"/><path d="m18.46 26.486-2.075.557.845 4.041a.969.969 0 0 1-1.146 1.146l-4.072-.845-.559 2.076 3.945 1.307a.969.969 0 0 1 .418 1.564l-2.738 3.07 1.494 1.512 3.096-2.762a.969.969 0 0 1 1.564.418l1.307 3.946 2.076-.559-.845-4.041a.969.969 0 0 1 1.146-1.146l4.072.845.559-2.076-3.945-1.307a.969.969 0 0 1-.418-1.564l2.738-3.07-1.494-1.512-3.096 2.762a.969.969 0 0 1-1.564-.418Z" style="fill:none;stroke:url(#L);stroke-width:3.02775;stroke-linecap:round;stroke-linejoin:miter;stroke-miterlimit:4;stroke-dasharray:none;stroke-opacity:1" transform="translate(36.844 36.71)"/><path d="m55.625 62.553-3 .875.937 4.469a.449.449 0 0 1-.125.406.449.449 0 0 1-.406.125l-4.5-.937-.875 3 4.438 1.468c.149.052.241.192.281.344a.417.417 0 0 1-.094.406l-3.031 3.438 2.125 2.156 3.469-3.062a.417.417 0 0 1 .406-.094c.153.04.292.132.344.281l1.468 4.438 3-.875-.937-4.47a.449.449 0 0 1 .125-.405.449.449 0 0 1 .406-.125l4.5.937.875-3-4.437-1.469c-.15-.051-.242-.19-.282-.343a.417.417 0 0 1 .094-.407l3.031-3.437-2.125-2.156-3.468 3.062a.417.417 0 0 1-.407.094c-.152-.04-.292-.132-.343-.281zm.719 5.656a3.001 3.001 0 0 1 0 6 3.001 3.001 0 0 1 0-6z" style="opacity:.937255;fill:url(#M);fill-opacity:1;stroke:none;stroke-width:3.02775"/><path d="M56.344 65.71a5.502 5.502 0 0 0-5.5 5.5c0 3.035 2.464 5.5 5.5 5.5s5.5-2.465 5.5-5.5c0-3.037-2.464-5.5-5.5-5.5zm0 3a2.5 2.5 0 0 1 0 5 2.5 2.5 0 0 1 0-5z" style="fill:url(#N);fill-opacity:1;stroke:none;stroke-width:3.02775"/><circle cx="19.556" cy="34.587" r="3.16" style="fill:none;stroke:url(#O);stroke-width:3.18911;stroke-linecap:round;stroke-linejoin:miter;stroke-miterlimit:4;stroke-dasharray:none;stroke-opacity:1" transform="translate(37.777 38.372)scale(.9494)"/><circle cx="19.556" cy="34.587" r="3.16" style="fill:none;stroke:url(#P);stroke-width:1.91347;stroke-linecap:round;stroke-linejoin:miter;stroke-miterlimit:4;stroke-dasharray:none;stroke-opacity:1" transform="matrix(1.58233 0 0 -1.58234 25.4 125.938)"/></g><text xml:space="preserve" x="146.623" y="98.82" style="font-style:normal;font-variant:normal;font-weight:400;font-stretch:normal;font-size:8.61982px;line-height:100%;font-family:&quot;Arial Black&quot;;-inkscape-font-specification:&quot;Arial Black, Normal&quot;;font-variant-ligatures:normal;font-variant-caps:normal;font-variant-numeric:normal;font-variant-east-asian:normal;text-align:center;letter-spacing:0;word-spacing:0;writing-mode:lr-tb;text-anchor:middle;fill:#000;fill-opacity:1;stroke:none;stroke-width:.328231px;stroke-linecap:butt;stroke-linejoin:miter;stroke-opacity:1"><tspan>KTOR</tspan><tspan> server</tspan></text></g><path d="M173.325 126.18c-24.262-1.128-23.582-17.939-22.67-34.896" style="fill:none;fill-opacity:1;fill-rule:evenodd;stroke:#700094;stroke-width:.748633;stroke-linecap:butt;stroke-linejoin:miter;stroke-miterlimit:4;stroke-dasharray:none;stroke-opacity:1;marker-start:url(#Q)"/><g style="stroke-width:3.02775"><g style="stroke-width:3.02775"><path d="M-100.334 134.128a3.94 3.94 0 0 0-3.935 3.935v46.302a3.94 3.94 0 0 0 3.935 3.936h40.746a3.94 3.94 0 0 0 3.936-3.936v-46.302a3.94 3.94 0 0 0-3.936-3.935z" style="opacity:.2;stroke-width:.700955" transform="translate(119.374 -5.393)scale(.33028)"/><path d="M-100.797 133.665a3.94 3.94 0 0 0-3.935 3.935v46.302a3.94 3.94 0 0 0 3.935 3.936h40.746a3.94 3.94 0 0 0 3.936-3.936V137.6a3.94 3.94 0 0 0-3.936-3.935z" style="opacity:.2;stroke-width:.700955" transform="translate(119.374 -5.393)scale(.33028)"/><path d="M-101.26 133.433a3.94 3.94 0 0 0-3.935 3.936v46.302a3.94 3.94 0 0 0 3.935 3.936h40.746a3.94 3.94 0 0 0 3.936-3.936v-46.302a3.94 3.94 0 0 0-3.936-3.936z" style="opacity:.2;stroke-width:.700955" transform="translate(119.374 -5.393)scale(.33028)"/><path d="M-101.028 133.086a3.94 3.94 0 0 0-3.936 3.936v46.302a3.94 3.94 0 0 0 3.936 3.935h40.746a3.94 3.94 0 0 0 3.935-3.935v-46.302a3.94 3.94 0 0 0-3.935-3.936z" style="fill:url(#R);stroke-width:.700955" transform="translate(119.374 -5.393)scale(.33028)"/><path d="M-104.038 183.324a2.778 2.778 0 0 0 2.778 2.778h40.746a2.778 2.778 0 0 0 2.778-2.778v-46.302a2.778 2.778 0 0 0-2.778-2.779h-40.746a2.778 2.778 0 0 0-2.778 2.779z" style="fill:#fff;stroke-width:.700955" transform="translate(119.374 -5.393)scale(.33028)"/><path d="M-110.52 130.539h59.267v59.267h-59.267z" style="fill:none;stroke-width:.700955" transform="translate(119.374 -5.393)scale(.33028)"/><path d="M11.781 19.5c-.179 0-.27.018-.304.027-.034.01-.014-.001-.043.022-.006.004-.109.1-.211.396L9.803 24.5H37.12l-1.43-4.344c-.191-.476-.262-.517-.314-.552-.07-.048-.143-.104-.565-.104Z" style="color:#000;display:block;overflow:visible;visibility:visible;opacity:.15;fill:none;stroke:url(#S);stroke-width:3.02775;stroke-linecap:butt;stroke-linejoin:miter;stroke-miterlimit:4;stroke-dashoffset:0;stroke-opacity:1;marker:none" transform="translate(82.87 37.8)scale(.07646)"/><path d="M-104.038 183.324a2.778 2.778 0 0 0 2.778 2.778h40.746a2.778 2.778 0 0 0 2.778-2.778v-46.302a2.778 2.778 0 0 0-2.778-2.779h-40.746a2.778 2.778 0 0 0-2.778 2.779z" style="fill:#fff;stroke-width:.700955" transform="translate(119.374 -5.393)scale(.33028)"/></g><g style="stroke-width:3.02775" transform="translate(106.695 -33.247)scale(.33028)"><rect width="38.046" height="22.207" x="-61.419" y="-267.66" rx="3.593" ry="4.043" style="fill:#0048d8;fill-opacity:1;stroke:none;stroke-width:.377279" transform="scale(1 -1)"/><text xml:space="preserve" x="-72.774" y="203.259" style="font-style:normal;font-variant:normal;font-weight:400;font-stretch:condensed;font-size:10.7651px;line-height:100%;font-family:Impact;-inkscape-font-specification:&quot;Impact, Condensed&quot;;font-variant-ligatures:normal;font-variant-caps:normal;font-variant-numeric:normal;font-variant-east-asian:normal;text-align:start;letter-spacing:0;word-spacing:0;writing-mode:lr-tb;text-anchor:start;fill:#fff;fill-opacity:1;stroke:none;stroke-width:.415377px;stroke-linecap:butt;stroke-linejoin:miter;stroke-opacity:1" transform="scale(.77627 1.2882)"><tspan x="-72.774" y="203.259" style="stroke-width:.415377px">request</tspan></text></g></g><g style="fill:#784421;stroke-width:3.02775"><path d="M47.95 38.397c4.206 0 8.095-.397 11.746-1.111 3.65-.794 6.508-1.905 8.65-3.413v4.524c0 1.19-.872 2.381-2.698 3.413-1.825 1.032-4.286 1.905-7.46 2.46-3.175.556-6.508.953-10.238.953-3.73 0-7.064-.318-10.239-.953-3.174-.635-5.635-1.428-7.46-2.46-1.825-1.032-2.698-2.143-2.698-3.413v-4.524c2.142 1.508 5 2.62 8.65 3.413 3.651.714 7.54 1.111 11.747 1.111zm0 20.397c4.206 0 8.095-.397 11.746-1.111 3.65-.794 6.508-1.905 8.65-3.413v4.524c0 1.19-.872 2.381-2.698 3.413-1.825 1.032-4.286 1.905-7.46 2.46-3.175.556-6.588.953-10.238.953-3.651 0-7.064-.318-10.239-.953-3.174-.635-5.635-1.428-7.46-2.46-1.825-1.032-2.698-2.143-2.698-3.413V54.27c2.142 1.508 5 2.62 8.65 3.413 3.651.714 7.54 1.111 11.747 1.111zm0-10.159c4.206 0 8.095-.397 11.746-1.11 3.65-.715 6.508-1.906 8.65-3.414v4.524c0 1.19-.872 2.381-2.698 3.413-1.825 1.032-4.286 1.905-7.46 2.46-3.175.635-6.508.953-10.238.953-3.73 0-7.064-.318-10.239-.953-3.174-.635-5.635-1.428-7.46-2.46-1.825-1.032-2.698-2.143-2.698-3.413v-4.524c2.142 1.508 5 2.62 8.65 3.413 3.651.794 7.54 1.111 11.747 1.111zm0-30.635c3.65 0 7.063.317 10.238.952 3.174.635 5.635 1.429 7.46 2.46 1.826 1.032 2.699 2.144 2.699 3.413v3.413c0 1.19-.873 2.381-2.699 3.413-1.825 1.032-4.286 1.905-7.46 2.46-3.175.556-6.508.953-10.238.953-3.73 0-7.064-.318-10.239-.953-3.174-.635-5.635-1.428-7.46-2.46-1.825-1.032-2.698-2.143-2.698-3.413v-3.413c0-1.19.873-2.38 2.698-3.412s4.286-1.905 7.46-2.46C40.886 18.316 44.3 18 47.95 18Z" style="fill:#784421;stroke-width:2.403" transform="matrix(.7133 0 0 .7133 -5.368 58.532)"/></g><g transform="matrix(.41347 0 0 .41347 99.23 -137.517)"><g style="stroke-width:3.02775"><path d="m-206.673 318.47-19.165 13.325c-.55.382-.897.996-.897 1.665v18.24c0 .675.333 1.307.89 1.688l19.186 13.096c.7.479 1.623.474 2.32-.01l19.184-13.344c.55-.382.878-1.009.878-1.678v-18.239c0-.676-.335-1.308-.894-1.69l-19.184-13.063a2.044 2.044 0 0 0-2.318.01zm-44.512.113-19.166 13.326c-.549.382-.897.995-.897 1.664v18.24c0 .674.334 1.307.892 1.687l19.185 13.097c.7.478 1.623.474 2.32-.01l19.185-13.345a2.045 2.045 0 0 0 .876-1.678v-18.238c0-.676-.334-1.309-.893-1.69l-19.185-13.064a2.044 2.044 0 0 0-2.317.011z" style="opacity:.2;stroke-width:.200273" transform="matrix(.3683 -.0058 .0058 .3683 -87.24 409.962)"/><path d="m-207.695 318.13-19.165 13.324c-.55.383-.897.996-.897 1.666v18.238c0 .675.333 1.308.891 1.687l19.186 13.098c.7.478 1.623.474 2.32-.01l19.184-13.345a2.045 2.045 0 0 0 .877-1.678v-18.238c0-.677-.335-1.309-.893-1.69l-19.186-13.064a2.043 2.043 0 0 0-2.317.011zm-44.512.112-19.166 13.326c-.55.382-.897.995-.897 1.664v18.238c0 .676.334 1.308.891 1.688l19.185 13.097c.7.479 1.624.474 2.32-.01l19.185-13.344c.55-.382.877-1.009.877-1.678v-18.238c0-.676-.335-1.308-.894-1.69l-19.184-13.064a2.044 2.044 0 0 0-2.317.011z" style="opacity:.2;stroke-width:.200273" transform="matrix(.3683 -.0058 .0058 .3683 -87.24 409.962)"/><path d="m-208.376 318.13-19.166 13.324c-.548.383-.896.996-.896 1.666v18.238c0 .675.334 1.308.891 1.687l19.185 13.098c.7.478 1.624.474 2.32-.01l19.185-13.345a2.045 2.045 0 0 0 .877-1.678v-18.238c0-.677-.334-1.309-.894-1.69l-19.185-13.064a2.044 2.044 0 0 0-2.317.011z" style="fill:#fff;stroke-width:.200273" transform="matrix(.3683 -.0058 .0058 .3683 -87.24 409.962)"/><path d="m-208.376 318.13-19.166 13.324c-.548.383-.896.996-.896 1.666v18.238c0 .675.334 1.308.891 1.687l19.185 13.098c.7.478 1.624.474 2.32-.01l19.185-13.345a2.045 2.045 0 0 0 .877-1.678v-18.238c0-.677-.334-1.309-.894-1.69l-19.185-13.064a2.044 2.044 0 0 0-2.317.011z" style="fill:url(#T);stroke-width:.200273" transform="matrix(.3683 -.0058 .0058 .3683 -87.24 409.962)"/><g style="stroke-width:.403886"><path d="m171.166 62.027 38.689 26.347-38.689 26.911-38.689-26.358z" style="fill:#fff;stroke-width:.403886" transform="rotate(-.9 32872.926 12549.133)scale(.18264)"/></g><g style="stroke-width:.403886"><path d="m171.166 62.027 38.689 26.347-38.689 26.911-38.689-26.358z" style="fill:url(#U);stroke-width:.403886" transform="rotate(-.9 32872.926 12549.133)scale(.18264)"/></g><g style="stroke-width:.403886"><path d="m209.855 88.374-38.689 26.911v36.78l38.689-26.91z" style="fill:#ff6d00;stroke-width:.403886" transform="rotate(-.9 32872.926 12549.133)scale(.18264)"/></g><g style="stroke-width:.403886"><path d="m132.477 88.873 38.695 26.412-.006 36.78-38.689-26.411z" style="fill:#ffa700;stroke-width:.403886" transform="rotate(-.9 32872.926 12549.133)scale(.18264)"/></g><path d="m-229.156 345.259-19.166 13.325c-.55.383-.896.996-.896 1.665v18.238c0 .675.333 1.308.891 1.688l19.185 13.097c.7.478 1.623.475 2.32-.01l19.184-13.345a2.045 2.045 0 0 0 .878-1.677V360c0-.675-.336-1.308-.894-1.689l-19.185-13.064a2.044 2.044 0 0 0-2.317.01z" style="opacity:.2;stroke-width:.200273" transform="matrix(.3683 -.0058 .0058 .3683 -87.24 409.962)"/><path d="m-252.889 318.242-19.165 13.326c-.55.382-.897.995-.897 1.664v18.238c0 .676.333 1.308.892 1.688l19.185 13.097c.7.479 1.623.474 2.319-.01l19.185-13.344a2.045 2.045 0 0 0 .877-1.678v-18.238c0-.676-.335-1.308-.894-1.69l-19.185-13.064a2.044 2.044 0 0 0-2.317.011z" style="fill:url(#V);stroke-width:.200273" transform="matrix(.3683 -.0058 .0058 .3683 -87.24 409.962)"/><g style="stroke-width:.403886"><path d="m81.399 62.256 38.69 26.347-38.69 26.911-38.691-26.358z" style="fill:#fff;stroke-width:.403886" transform="rotate(-.9 32872.926 12549.133)scale(.18264)"/></g><g style="stroke-width:.403886"><path d="m81.399 62.256 38.69 26.347-38.69 26.911-38.691-26.358z" style="fill:url(#W);stroke-width:.403886" transform="rotate(-.9 32872.926 12549.133)scale(.18264)"/></g><path d="m-230.178 344.918-19.166 13.325c-.55.382-.897.996-.897 1.665v18.239c0 .674.334 1.307.892 1.687l19.185 13.097c.7.478 1.623.474 2.32-.01l19.184-13.344c.549-.383.877-1.01.877-1.678V359.66c0-.677-.335-1.309-.893-1.69l-19.185-13.063a2.043 2.043 0 0 0-2.317.011z" style="opacity:.2;stroke-width:.200273" transform="matrix(.3683 -.0058 .0058 .3683 -87.24 409.962)"/><g style="stroke-width:.403886"><path d="m120.089 88.603-38.69 26.911v36.781l38.69-26.911z" style="fill:#cf0000;stroke-width:.403886" transform="rotate(-.9 32872.926 12549.133)scale(.18264)"/></g><g style="stroke-width:.403886"><path d="m42.708 89.102 38.696 26.412-.005 36.781-38.691-26.413z" style="fill:red;stroke-width:.403886" transform="rotate(-.9 32872.926 12549.133)scale(.18264)"/></g><path d="m-230.86 344.918-19.165 13.325c-.55.382-.897.996-.897 1.665v18.239c0 .674.334 1.307.891 1.687l19.185 13.097c.7.478 1.623.474 2.32-.01l19.186-13.344c.549-.383.876-1.01.876-1.678V359.66c0-.677-.334-1.309-.894-1.69l-19.185-13.063a2.044 2.044 0 0 0-2.317.011z" style="fill:url(#X);stroke-width:.200273" transform="matrix(.3683 -.0058 .0058 .3683 -87.24 409.962)"/><path d="M164.516 166.375v-36.781l-38.691-26.347-38.652 26.873-.039-.027v36.781l38.691 26.412z" style="fill:#6c3;stroke-width:.403886" transform="matrix(.18262 -.00287 .00287 .18262 -193.1 520.448)"/><g style="stroke-width:.403886"><path d="m87.134 130.146 38.691-26.899 38.691 26.347-38.691 26.91z" style="fill:#fff;stroke-width:.403886" transform="matrix(.18262 -.00287 .00287 .18262 -193.1 520.448)"/></g><g style="stroke-width:.403886"><path d="m87.134 130.146 38.691-26.899 38.691 26.347-38.691 26.91z" style="fill:url(#Y);stroke-width:.403886" transform="matrix(.18262 -.00287 .00287 .18262 -193.1 520.448)"/></g><g style="stroke-width:.403886"><path d="M164.516 166.375v-36.781l-38.691 26.91v36.782z" style="fill:#093;stroke-width:.403886" transform="matrix(.18262 -.00287 .00287 .18262 -193.1 520.448)"/></g><g style="stroke-width:.403886"><path d="M87.134 166.874v-36.781l38.697 26.411-.006 36.782z" style="fill:#6c3;stroke-width:.403886" transform="matrix(.18262 -.00287 .00287 .18262 -193.1 520.448)"/></g></g><text xml:space="preserve" x="-185.877" y="558.085" style="font-style:normal;font-variant:normal;font-weight:400;font-stretch:normal;font-size:4.23333px;line-height:100%;font-family:&quot;Arial Black&quot;;-inkscape-font-specification:&quot;Arial Black, Normal&quot;;font-variant-ligatures:normal;font-variant-caps:normal;font-variant-numeric:normal;font-feature-settings:normal;text-align:start;letter-spacing:0;word-spacing:0;writing-mode:lr-tb;text-anchor:start;fill:#228b22;fill-opacity:1;stroke:none;stroke-width:.295072px;stroke-linecap:butt;stroke-linejoin:miter;stroke-opacity:1" transform="rotate(-.902)"><tspan x="-185.877" y="558.085">synset</tspan></text><text xml:space="preserve" x="-185.114" y="562.271" style="font-style:normal;font-variant:normal;font-weight:400;font-stretch:normal;font-size:4.23333px;line-height:100%;font-family:&quot;Arial Black&quot;;-inkscape-font-specification:&quot;Arial Black, Normal&quot;;font-variant-ligatures:normal;font-variant-caps:normal;font-variant-numeric:normal;font-feature-settings:normal;text-align:start;letter-spacing:0;word-spacing:0;writing-mode:lr-tb;text-anchor:start;fill:red;fill-opacity:1;stroke:none;stroke-width:.295072px;stroke-linecap:butt;stroke-linejoin:miter;stroke-opacity:1" transform="rotate(-.902)"><tspan x="-185.114" y="562.271">sense</tspan></text><text xml:space="preserve" x="-186.201" y="566.742" style="font-style:normal;font-variant:normal;font-weight:400;font-stretch:normal;font-size:4.23333px;line-height:100%;font-family:&quot;Arial Black&quot;;-inkscape-font-specification:&quot;Arial Black, Normal&quot;;font-variant-ligatures:normal;font-variant-caps:normal;font-variant-numeric:normal;font-feature-settings:normal;text-align:start;letter-spacing:0;word-spacing:0;writing-mode:lr-tb;text-anchor:start;fill:#696969;fill-opacity:1;stroke:none;stroke-width:.295072px;stroke-linecap:butt;stroke-linejoin:miter;stroke-opacity:1" transform="rotate(-.902)"><tspan x="-186.201" y="566.742">lemma</tspan></text><text xml:space="preserve" x="-187.384" y="570.993" style="font-style:normal;font-variant:normal;font-weight:400;font-stretch:normal;font-size:4.23333px;line-height:100%;font-family:&quot;Arial Black&quot;;-inkscape-font-specification:&quot;Arial Black, Normal&quot;;font-variant-ligatures:normal;font-variant-caps:normal;font-variant-numeric:normal;font-feature-settings:normal;text-align:start;letter-spacing:0;word-spacing:0;writing-mode:lr-tb;text-anchor:start;fill:#d2691e;fill-opacity:1;stroke:none;stroke-width:.295072px;stroke-linecap:butt;stroke-linejoin:miter;stroke-opacity:1" transform="rotate(-.902)"><tspan x="-187.384" y="570.993">relation</tspan></text><rect width="37.313" height="62.037" x="-188.593" y="517.07" ry="9.57" style="opacity:.98;fill:none;fill-opacity:1;stroke:#999;stroke-width:.974785;stroke-linejoin:round;stroke-miterlimit:4;stroke-dasharray:none;stroke-opacity:1"/><text xml:space="preserve" x="-172.14" y="523.294" style="font-style:normal;font-variant:normal;font-weight:400;font-stretch:normal;font-size:5.64444px;line-height:100%;font-family:&quot;Arial Black&quot;;-inkscape-font-specification:&quot;Arial Black, Normal&quot;;font-variant-ligatures:normal;font-variant-caps:normal;font-variant-numeric:normal;font-feature-settings:normal;text-align:center;letter-spacing:0;word-spacing:0;writing-mode:lr-tb;text-anchor:middle;fill:#a9a9a9;fill-opacity:1;stroke:none;stroke-width:.295072px;stroke-linecap:butt;stroke-linejoin:miter;stroke-opacity:1" transform="rotate(-.124)"><tspan x="-172.14" y="523.294">model</tspan></text></g><path d="m29.509 25.26-.066 40.342" style="fill:#784421;fill-opacity:1;fill-rule:evenodd;stroke:#784421;stroke-width:1.99502;stroke-linecap:butt;stroke-linejoin:miter;stroke-miterlimit:4;stroke-dasharray:none;stroke-opacity:1;marker-end:url(#Z)"/><g style="stroke-width:3.02775"><g style="stroke-width:3.02775"><path d="M-100.334 134.128a3.94 3.94 0 0 0-3.935 3.935v46.302a3.94 3.94 0 0 0 3.935 3.936h40.746a3.94 3.94 0 0 0 3.936-3.936v-46.302a3.94 3.94 0 0 0-3.936-3.935z" style="opacity:.2;stroke-width:.700955" transform="matrix(.28377 0 0 .28377 66.493 -28.818)"/><path d="M-100.797 133.665a3.94 3.94 0 0 0-3.935 3.935v46.302a3.94 3.94 0 0 0 3.935 3.936h40.746a3.94 3.94 0 0 0 3.936-3.936V137.6a3.94 3.94 0 0 0-3.936-3.935z" style="opacity:.2;stroke-width:.700955" transform="matrix(.28377 0 0 .28377 66.493 -28.818)"/><path d="M-101.26 133.433a3.94 3.94 0 0 0-3.935 3.936v46.302a3.94 3.94 0 0 0 3.935 3.936h40.746a3.94 3.94 0 0 0 3.936-3.936v-46.302a3.94 3.94 0 0 0-3.936-3.936z" style="opacity:.2;stroke-width:.700955" transform="matrix(.28377 0 0 .28377 66.493 -28.818)"/><path d="M-101.028 133.086a3.94 3.94 0 0 0-3.936 3.936v46.302a3.94 3.94 0 0 0 3.936 3.935h40.746a3.94 3.94 0 0 0 3.935-3.935v-46.302a3.94 3.94 0 0 0-3.935-3.936z" style="fill:url(#aa);stroke-width:.700955" transform="matrix(.28377 0 0 .28377 66.493 -28.818)"/><path d="M-104.038 183.324a2.778 2.778 0 0 0 2.778 2.778h40.746a2.778 2.778 0 0 0 2.778-2.778v-46.302a2.778 2.778 0 0 0-2.778-2.779h-40.746a2.778 2.778 0 0 0-2.778 2.779z" style="fill:#fff;stroke-width:.700955" transform="matrix(.28377 0 0 .28377 66.493 -28.818)"/><path d="M-110.52 130.539h59.267v59.267h-59.267z" style="fill:none;stroke-width:.700955" transform="matrix(.28377 0 0 .28377 66.493 -28.818)"/><path d="M11.781 19.5c-.179 0-.27.018-.304.027-.034.01-.014-.001-.043.022-.006.004-.109.1-.211.396L9.803 24.5H37.12l-1.43-4.344c-.191-.476-.262-.517-.314-.552-.07-.048-.143-.104-.565-.104Z" style="color:#000;display:block;overflow:visible;visibility:visible;opacity:.15;fill:none;stroke:url(#ab);stroke-width:3.02775;stroke-linecap:butt;stroke-linejoin:miter;stroke-miterlimit:4;stroke-dashoffset:0;stroke-opacity:1;marker:none" transform="matrix(.0657 0 0 .0657 35.13 8.29)"/><path d="M-104.038 183.324a2.778 2.778 0 0 0 2.778 2.778h40.746a2.778 2.778 0 0 0 2.778-2.778v-46.302a2.778 2.778 0 0 0-2.778-2.779h-40.746a2.778 2.778 0 0 0-2.778 2.779z" style="fill:#fff;stroke-width:.700955" transform="matrix(.28377 0 0 .28377 66.493 -28.818)"/></g><g style="stroke-width:3.02775" transform="matrix(.28377 0 0 .28377 55.6 -52.75)"><rect width="38.046" height="22.207" x="-61.419" y="-267.66" rx="3.593" ry="4.043" style="fill:navy;fill-opacity:1;stroke:none;stroke-width:.377279" transform="scale(1 -1)"/><text xml:space="preserve" x="-55.084" y="261.839" style="font-style:normal;font-variant:normal;font-weight:400;font-stretch:condensed;font-size:13.8677px;line-height:100%;font-family:Impact;-inkscape-font-specification:&quot;Impact, Condensed&quot;;font-variant-ligatures:normal;font-variant-caps:normal;font-variant-numeric:normal;font-variant-east-asian:normal;text-align:start;letter-spacing:0;word-spacing:0;writing-mode:lr-tb;text-anchor:start;fill:#fff;fill-opacity:1;stroke:none;stroke-width:.53509px;stroke-linecap:butt;stroke-linejoin:miter;stroke-opacity:1"><tspan x="-55.084" y="261.839">JSON</tspan></text></g></g><g transform="matrix(.48249 0 0 .48249 -23.602 40.558)"><path d="M61.593-71.16a2.593 2.593 0 0 0-2.582 2.596l.085 30.466a2.593 2.593 0 0 0 2.596 2.583l26.811-.075a2.593 2.593 0 0 0 2.583-2.597L91-68.654a2.593 2.593 0 0 0-2.597-2.581z" style="opacity:.2;stroke-width:.461228"/><path d="M61.287-71.464a2.593 2.593 0 0 0-2.582 2.596l.085 30.467a2.593 2.593 0 0 0 2.597 2.582l26.81-.075a2.593 2.593 0 0 0 2.583-2.597l-.085-30.466a2.593 2.593 0 0 0-2.597-2.582z" style="opacity:.2;stroke-width:.461228"/><path d="M60.982-71.616A2.593 2.593 0 0 0 58.4-69.02l.085 30.466a2.593 2.593 0 0 0 2.597 2.583l26.81-.075a2.593 2.593 0 0 0 2.583-2.597l-.085-30.466a2.593 2.593 0 0 0-2.597-2.583z" style="opacity:.2;stroke-width:.461228"/><path d="M61.134-71.845a2.593 2.593 0 0 0-2.582 2.597l.085 30.467a2.593 2.593 0 0 0 2.597 2.582l26.81-.075a2.593 2.593 0 0 0 2.583-2.597l-.086-30.466a2.593 2.593 0 0 0-2.596-2.583z" style="fill:url(#ac);stroke-width:.461228"/><path d="M59.246-38.783a1.828 1.828 0 0 0 1.833 1.823l26.81-.075a1.828 1.828 0 0 0 1.824-1.833l-.085-30.467a1.828 1.828 0 0 0-1.833-1.823l-26.811.075a1.828 1.828 0 0 0-1.823 1.833z" style="fill:#fff;stroke-width:.461228"/><path d="m54.884-73.503 38.997-.11.11 38.998-38.998.11z" style="fill:none;stroke-width:.461228"/><path d="M59.246-38.783a1.828 1.828 0 0 0 1.833 1.823l26.81-.075a1.828 1.828 0 0 0 1.824-1.833l-.085-30.467a1.828 1.828 0 0 0-1.833-1.823l-26.811.075a1.828 1.828 0 0 0-1.823 1.833z" style="fill:#fff;stroke-width:.461228"/><rect width="25.034" height="14.612" x="61.518" y="43.304" rx="2.364" ry="2.66" style="fill:#a00;fill-opacity:1;stroke:none;stroke-width:.24825" transform="scale(1 -1)rotate(.16)"/><text xml:space="preserve" x="55.762" y="-52.977" style="font-style:normal;font-variant:normal;font-weight:400;font-stretch:condensed;font-size:10.2049px;line-height:100%;font-family:Impact;-inkscape-font-specification:&quot;Impact, Condensed&quot;;font-variant-ligatures:normal;font-variant-caps:normal;font-variant-numeric:normal;font-feature-settings:normal;text-align:start;letter-spacing:0;word-spacing:0;writing-mode:lr-tb;text-anchor:start;fill:#fff;fill-opacity:1;stroke:none;stroke-width:.393754px;stroke-linecap:butt;stroke-linejoin:miter;stroke-opacity:1" transform="matrix(1.11833 -.00312 .0025 .89419 0 0)"><tspan x="55.762" y="-52.977" style="stroke-width:.393754px">YAML</tspan></text><path d="M64.814-68.025a2.593 2.593 0 0 0-2.582 2.597l.085 30.466a2.593 2.593 0 0 0 2.597 2.583l26.81-.075a2.593 2.593 0 0 0 2.583-2.597l-.085-30.467a2.593 2.593 0 0 0-2.597-2.582Z" style="opacity:.2;stroke-width:.461228"/><path d="M64.509-68.329a2.593 2.593 0 0 0-2.582 2.597l.085 30.466a2.593 2.593 0 0 0 2.596 2.583l26.81-.075a2.593 2.593 0 0 0 2.584-2.597l-.086-30.467a2.593 2.593 0 0 0-2.597-2.582z" style="opacity:.2;stroke-width:.461228"/><path d="M64.204-68.48a2.593 2.593 0 0 0-2.582 2.597l.085 30.466a2.593 2.593 0 0 0 2.596 2.583l26.81-.075a2.593 2.593 0 0 0 2.583-2.597l-.085-30.467a2.593 2.593 0 0 0-2.597-2.582z" style="opacity:.2;stroke-width:.461228"/><path d="M64.356-68.71a2.593 2.593 0 0 0-2.583 2.598l.085 30.466a2.593 2.593 0 0 0 2.597 2.582l26.81-.074a2.593 2.593 0 0 0 2.583-2.597L93.763-66.2a2.593 2.593 0 0 0-2.597-2.583z" style="fill:url(#ad);stroke-width:.461228"/><path d="M62.467-35.647a1.828 1.828 0 0 0 1.833 1.823l26.811-.075a1.828 1.828 0 0 0 1.823-1.833L92.849-66.2a1.828 1.828 0 0 0-1.833-1.823l-26.811.074a1.828 1.828 0 0 0-1.823 1.834z" style="fill:#fff;stroke-width:.461228"/><path d="m58.105-70.368 38.998-.109.109 38.998-38.998.109z" style="fill:none;stroke-width:.461228"/><path d="M62.467-35.647a1.828 1.828 0 0 0 1.833 1.823l26.811-.075a1.828 1.828 0 0 0 1.823-1.833L92.849-66.2a1.828 1.828 0 0 0-1.833-1.823l-26.811.074a1.828 1.828 0 0 0-1.823 1.834z" style="fill:#fff;stroke-width:.461228"/><rect width="25.034" height="14.612" x="64.73" y="40.159" rx="2.364" ry="2.66" style="fill:#a00;fill-opacity:1;stroke:none;stroke-width:.24825" transform="scale(1 -1)rotate(.16)"/><text xml:space="preserve" x="58.634" y="-49.46" style="font-style:normal;font-variant:normal;font-weight:400;font-stretch:condensed;font-size:10.2049px;line-height:100%;font-family:Impact;-inkscape-font-specification:&quot;Impact, Condensed&quot;;font-variant-ligatures:normal;font-variant-caps:normal;font-variant-numeric:normal;font-feature-settings:normal;text-align:start;letter-spacing:0;word-spacing:0;writing-mode:lr-tb;text-anchor:start;fill:#fff;fill-opacity:1;stroke:none;stroke-width:.393754px;stroke-linecap:butt;stroke-linejoin:miter;stroke-opacity:1" transform="matrix(1.11833 -.00312 .0025 .89419 0 0)"><tspan x="58.634" y="-49.46" style="stroke-width:.393754px">YAML</tspan></text><path d="M68.004-64.207a2.593 2.593 0 0 0-2.582 2.597l.085 30.466a2.593 2.593 0 0 0 2.597 2.583l26.81-.075a2.593 2.593 0 0 0 2.583-2.597L97.412-61.7a2.593 2.593 0 0 0-2.597-2.582z" style="opacity:.2;stroke-width:.461228"/><path d="M67.699-64.51a2.593 2.593 0 0 0-2.582 2.596l.085 30.466a2.593 2.593 0 0 0 2.596 2.583l26.811-.075a2.593 2.593 0 0 0 2.583-2.597l-.085-30.467a2.593 2.593 0 0 0-2.597-2.582z" style="opacity:.2;stroke-width:.461228"/><path d="M67.394-64.663a2.593 2.593 0 0 0-2.582 2.598l.085 30.466a2.593 2.593 0 0 0 2.596 2.583l26.811-.075a2.593 2.593 0 0 0 2.583-2.597l-.085-30.467a2.593 2.593 0 0 0-2.598-2.582z" style="opacity:.2;stroke-width:.461228"/><path d="M67.546-64.891a2.593 2.593 0 0 0-2.583 2.597l.085 30.466a2.593 2.593 0 0 0 2.597 2.582l26.811-.074a2.593 2.593 0 0 0 2.582-2.597l-.085-30.466a2.593 2.593 0 0 0-2.596-2.583z" style="fill:url(#ae);stroke-width:.461228"/><path d="M65.657-31.83a1.828 1.828 0 0 0 1.833 1.824l26.811-.075a1.828 1.828 0 0 0 1.823-1.833l-.085-30.467a1.828 1.828 0 0 0-1.833-1.823l-26.81.074a1.828 1.828 0 0 0-1.824 1.834z" style="fill:#fff;stroke-width:.461228"/><path d="m61.295-66.55 38.998-.109.109 38.998-38.998.109z" style="fill:none;stroke-width:.461228"/><path d="M65.657-31.83a1.828 1.828 0 0 0 1.833 1.824l26.811-.075a1.828 1.828 0 0 0 1.823-1.833l-.085-30.467a1.828 1.828 0 0 0-1.833-1.823l-26.81.074a1.828 1.828 0 0 0-1.824 1.834z" style="fill:#fff;stroke-width:.461228"/><rect width="25.034" height="11.64" x="67.936" y="36.372" rx="2.364" ry="2.119" style="fill:#a00;fill-opacity:1;stroke:none;stroke-width:.221572" transform="matrix(1 -.00222 -.0035 -1 0 0)"/><text xml:space="preserve" x="61.474" y="-43.405" style="font-style:normal;font-variant:normal;font-weight:400;font-stretch:condensed;font-size:10.2049px;line-height:100%;font-family:Impact;-inkscape-font-specification:&quot;Impact, Condensed&quot;;font-variant-ligatures:normal;font-variant-caps:normal;font-variant-numeric:normal;font-feature-settings:normal;text-align:start;letter-spacing:0;word-spacing:0;writing-mode:lr-tb;text-anchor:start;fill:#fff;fill-opacity:1;stroke:none;stroke-width:.393754px;stroke-linecap:butt;stroke-linejoin:miter;stroke-opacity:1" transform="matrix(1.11833 -.00312 .0025 .89419 0 0)"><tspan x="61.474" y="-43.405" style="stroke-width:.393754px">YAML</tspan></text></g><text xml:space="preserve" x="-127.644" y="550.451" style="font-style:normal;font-variant:normal;font-weight:400;font-stretch:normal;font-size:3.93418px;line-height:100%;font-family:&quot;Arial Black&quot;;-inkscape-font-specification:&quot;Arial Black, Normal&quot;;font-variant-ligatures:normal;font-variant-caps:normal;font-variant-numeric:normal;font-feature-settings:normal;text-align:start;letter-spacing:0;word-spacing:0;writing-mode:lr-tb;text-anchor:start;opacity:.98;fill:#784421;fill-opacity:1;stroke:none;stroke-width:.295072px;stroke-linecap:butt;stroke-linejoin:miter;stroke-opacity:1;filter:url(#af)" transform="rotate(-90.065 -349.183 259.485)scale(1.17112)"><tspan x="-127.644" y="550.451" style="fill:#784421;fill-opacity:1">deserialize</tspan></text><path d="m134.074 68.635-82.41.592" style="fill:#0064e0;fill-opacity:1;fill-rule:evenodd;stroke:maroon;stroke-width:.940574;stroke-linecap:butt;stroke-linejoin:miter;stroke-miterlimit:4;stroke-dasharray:none;stroke-opacity:1;marker-end:url(#s)"/><g style="stroke-width:3.02775"><g style="stroke-width:3.02775"><path d="M-100.334 134.128a3.94 3.94 0 0 0-3.935 3.935v46.302a3.94 3.94 0 0 0 3.935 3.936h40.746a3.94 3.94 0 0 0 3.936-3.936v-46.302a3.94 3.94 0 0 0-3.936-3.935z" style="opacity:.2;stroke-width:.700955" transform="translate(179.046 26.216)scale(.33028)"/><path d="M-100.797 133.665a3.94 3.94 0 0 0-3.935 3.935v46.302a3.94 3.94 0 0 0 3.935 3.936h40.746a3.94 3.94 0 0 0 3.936-3.936V137.6a3.94 3.94 0 0 0-3.936-3.935z" style="opacity:.2;stroke-width:.700955" transform="translate(179.046 26.216)scale(.33028)"/><path d="M-101.26 133.433a3.94 3.94 0 0 0-3.935 3.936v46.302a3.94 3.94 0 0 0 3.935 3.936h40.746a3.94 3.94 0 0 0 3.936-3.936v-46.302a3.94 3.94 0 0 0-3.936-3.936z" style="opacity:.2;stroke-width:.700955" transform="translate(179.046 26.216)scale(.33028)"/><path d="M-101.028 133.086a3.94 3.94 0 0 0-3.936 3.936v46.302a3.94 3.94 0 0 0 3.936 3.935h40.746a3.94 3.94 0 0 0 3.935-3.935v-46.302a3.94 3.94 0 0 0-3.935-3.936z" style="fill:url(#ag);stroke-width:.700955" transform="translate(179.046 26.216)scale(.33028)"/><path d="M-104.038 183.324a2.778 2.778 0 0 0 2.778 2.778h40.746a2.778 2.778 0 0 0 2.778-2.778v-46.302a2.778 2.778 0 0 0-2.778-2.779h-40.746a2.778 2.778 0 0 0-2.778 2.779z" style="fill:#fff;stroke-width:.700955" transform="translate(179.046 26.216)scale(.33028)"/><path d="M-110.52 130.539h59.267v59.267h-59.267z" style="fill:none;stroke-width:.700955" transform="translate(179.046 26.216)scale(.33028)"/><path d="M11.781 19.5c-.179 0-.27.018-.304.027-.034.01-.014-.001-.043.022-.006.004-.109.1-.211.396L9.803 24.5H37.12l-1.43-4.344c-.191-.476-.262-.517-.314-.552-.07-.048-.143-.104-.565-.104Z" style="color:#000;display:block;overflow:visible;visibility:visible;opacity:.15;fill:none;stroke:url(#ah);stroke-width:3.02775;stroke-linecap:butt;stroke-linejoin:miter;stroke-miterlimit:4;stroke-dashoffset:0;stroke-opacity:1;marker:none" transform="translate(142.543 69.408)scale(.07646)"/><path d="M-104.038 183.324a2.778 2.778 0 0 0 2.778 2.778h40.746a2.778 2.778 0 0 0 2.778-2.778v-46.302a2.778 2.778 0 0 0-2.778-2.779h-40.746a2.778 2.778 0 0 0-2.778 2.779z" style="fill:#fff;stroke-width:.700955" transform="translate(179.046 26.216)scale(.33028)"/></g><g style="stroke-width:3.02775" transform="translate(166.367 -1.638)scale(.33028)"><rect width="38.046" height="22.207" x="-61.419" y="-267.66" rx="3.593" ry="4.043" style="fill:purple;fill-opacity:1;stroke:none;stroke-width:.377279" transform="scale(1 -1)"/><text xml:space="preserve" x="-55.084" y="261.839" style="font-style:normal;font-variant:normal;font-weight:400;font-stretch:condensed;font-size:13.8677px;line-height:100%;font-family:Impact;-inkscape-font-specification:&quot;Impact, Condensed&quot;;font-variant-ligatures:normal;font-variant-caps:normal;font-variant-numeric:normal;font-variant-east-asian:normal;text-align:start;letter-spacing:0;word-spacing:0;writing-mode:lr-tb;text-anchor:start;fill:#fff;fill-opacity:1;stroke:none;stroke-width:.53509px;stroke-linecap:butt;stroke-linejoin:miter;stroke-opacity:1"><tspan x="-55.084" y="261.839">JSON</tspan></text></g></g><text xml:space="preserve" x="77.218" y="75.331" style="font-style:normal;font-variant:normal;font-weight:400;font-stretch:normal;font-size:3.93418px;line-height:100%;font-family:&quot;Arial Black&quot;;-inkscape-font-specification:&quot;Arial Black, Normal&quot;;font-variant-ligatures:normal;font-variant-caps:normal;font-variant-numeric:normal;font-variant-east-asian:normal;text-align:start;letter-spacing:0;word-spacing:0;writing-mode:lr-tb;text-anchor:start;fill:maroon;fill-opacity:1;stroke:none;stroke-width:.295072px;stroke-linecap:butt;stroke-linejoin:miter;stroke-opacity:1" transform="rotate(.046)"><tspan x="77.218" y="75.331">http response</tspan></text><text xml:space="preserve" x="-127.644" y="550.451" style="font-style:normal;font-variant:normal;font-weight:400;font-stretch:normal;font-size:3.93418px;line-height:100%;font-family:&quot;Arial Black&quot;;-inkscape-font-specification:&quot;Arial Black, Normal&quot;;font-variant-ligatures:normal;font-variant-caps:normal;font-variant-numeric:normal;font-feature-settings:normal;text-align:start;letter-spacing:0;word-spacing:0;writing-mode:lr-tb;text-anchor:start;opacity:.98;fill:#74009c;fill-opacity:1;stroke:none;stroke-width:.295072px;stroke-linecap:butt;stroke-linejoin:miter;stroke-opacity:1;filter:url(#af)" transform="rotate(-90.065 -263.393 234.337)scale(1.17112)"><tspan x="-127.644" y="550.451" style="fill:#74009c;fill-opacity:1">deserialize</tspan></text></svg>